<svg width="19" height="23" viewBox="0 0 19 23" fill="none" xmlns="http://www.w3.org/2000/svg">
<path d="M18.3428 17.6449C18.0101 18.4135 17.6163 19.1211 17.16 19.7715C16.5381 20.6583 16.0288 21.2721 15.6364 21.613C15.028 22.1724 14.3762 22.459 13.6782 22.4753C13.1771 22.4753 12.5728 22.3327 11.8693 22.0434C11.1636 21.7555 10.515 21.613 9.92198 21.613C9.30003 21.613 8.63299 21.7555 7.9195 22.0434C7.20493 22.3327 6.62928 22.4834 6.18916 22.4984C5.51981 22.5269 4.85264 22.2322 4.18668 21.613C3.76164 21.2422 3.22999 20.6067 2.59309 19.7063C1.90976 18.7449 1.34796 17.63 0.907839 16.3589C0.436484 14.986 0.200195 13.6565 0.200195 12.3694C0.200195 10.8951 0.518778 9.62345 1.15689 8.55784C1.6584 7.70191 2.32557 7.02672 3.16059 6.53105C3.99562 6.03539 4.89786 5.7828 5.86949 5.76664C6.40114 5.76664 7.09833 5.93109 7.96472 6.25429C8.82867 6.57858 9.38341 6.74303 9.62662 6.74303C9.80845 6.74303 10.4247 6.55074 11.4694 6.16738C12.4573 5.81186 13.2911 5.66466 13.9742 5.72264C15.8251 5.87202 17.2157 6.60167 18.1405 7.91619C16.4851 8.9192 15.6662 10.324 15.6825 12.1262C15.6975 13.53 16.2067 14.6981 17.2076 15.6256C17.6611 16.0561 18.1676 16.3888 18.7312 16.6251C18.609 16.9795 18.48 17.319 18.3428 17.6449ZM14.0978 0.940369C14.0978 2.04062 13.6958 3.06792 12.8946 4.01878C11.9277 5.14917 10.7582 5.80236 9.49001 5.69929C9.47385 5.56729 9.46448 5.42837 9.46448 5.28239C9.46448 4.22615 9.92429 3.09576 10.7408 2.17152C11.1485 1.70356 11.667 1.31445 12.2957 1.00406C12.9231 0.698295 13.5166 0.529201 14.0747 0.500244C14.091 0.647331 14.0978 0.794426 14.0978 0.940355V0.940369Z" fill="black"/>
</svg>
